<svg width="87" height="87" viewBox="0 0 87 87" fill="none" xmlns="http://www.w3.org/2000/svg">
<path d="M87 43.5C87 67.5244 67.5244 87 43.5 87C19.4756 87 0 67.5244 0 43.5C0 19.4756 19.4756 0 43.5 0C67.5244 0 87 19.4756 87 43.5ZM23.2725 43.5C23.2725 59.1159 27.8841 71.775 43.5 71.775C59.1159 71.775 83.52 53.505 83.52 43.5C83.52 33.495 59.1159 15.225 43.5 15.225C27.8841 15.225 23.2725 27.8841 23.2725 43.5Z" fill="white"/>
<path d="M77.3333 43.5C77.3333 50.895 57.9187 65.25 45.8401 65.25C33.7615 65.25 29 55.5122 29 43.5C29 31.4878 33.7615 21.75 45.8401 21.75C57.9187 21.75 77.3333 36.105 77.3333 43.5Z" fill="white"/>
</svg>
